<?xml version="1.0" standalone="no"?>
<!DOCTYPE svg PUBLIC "-//W3C//DTD SVG 20010904//EN"
 "http://www.w3.org/TR/2001/REC-SVG-20010904/DTD/svg10.dtd">
<svg version="1.0" xmlns="http://www.w3.org/2000/svg"
 width="500.000000pt" height="500.000000pt" viewBox="0 0 500.000000 500.000000"
 preserveAspectRatio="xMidYMid meet">

<g transform="translate(0.000000,500.000000) scale(0.100000,-0.100000)"
fill="#6366f1" stroke="none">
<path d="M2330 4990 c-471 -33 -910 -193 -1299 -473 -301 -217 -581 -544 -749
-874 -498 -979 -311 -2151 465 -2915 129 -127 174 -166 284 -245 269 -195 588
-342 894 -413 360 -84 790 -84 1150 0 425 99 832 323 1152 634 213 207 370
415 491 653 498 979 311 2151 -465 2915 -129 127 -174 166 -284 245 -269 195
-588 342 -894 413 -217 51 -523 75 -745 60z m704 -992 c3 -18 65 -441 138
-940 l132 -907 25 5 c75 15 961 140 961 136 0 -3 12 -86 26 -184 14 -99 23
-182 20 -185 -3 -4 -304 -50 -668 -104 -365 -54 -689 -102 -720 -107 l-57 -9
-10 66 c-44 269 -320 2186 -315 2190 5 6 395 67 441 70 18 1 23 -6 27 -31z
m-1024 -756 c221 -94 370 -316 442 -659 19 -90 23 -140 23 -298 0 -168 -3
-199 -23 -269 -57 -196 -167 -342 -312 -415 -199 -99 -420 -93 -581 15 l-51
34 5 -32 c21 -117 109 -749 106 -752 -4 -4 -294 -49 -406 -63 -24 -3 -43 -2
-43 3 0 5 -76 527 -169 1159 -93 633 -168 1151 -168 1151 5 5 412 62 418 59 3
-3 12 -33 19 -67 7 -35 16 -67 20 -71 4 -5 22 12 40 37 58 86 174 160 297 191
40 10 98 14 183 12 115 -3 131 -6 200 -35z"/>
<path d="M1542 2868 c-74 -25 -141 -80 -167 -138 l-19 -41 51 -346 51 -345 38
-39 c74 -73 211 -99 326 -61 140 46 200 158 200 372 1 235 -64 452 -164 547
-77 74 -192 93 -316 51z"/>
</g>
</svg>
